<?xml version="1.0" standalone="no"?>
<!DOCTYPE svg PUBLIC "-//W3C//DTD SVG 20010904//EN"
 "http://www.w3.org/TR/2001/REC-SVG-20010904/DTD/svg10.dtd">
<svg version="1.0" xmlns="http://www.w3.org/2000/svg"
 width="788.000000pt" height="609.000000pt" viewBox="0 0 788.000000 609.000000"
 preserveAspectRatio="xMidYMid meet">

<g transform="translate(0.000000,609.000000) scale(0.100000,-0.100000)"
fill="#000000" stroke="none">
<path d="M3927 6020 c-9 -30 -50 -208 -92 -395 -93 -418 -104 -461 -211 -810
-117 -380 -126 -385 -59 -35 39 203 68 420 63 474 -3 37 -5 34 -128 -154 -156
-240 -162 -251 -168 -325 -9 -116 63 -566 100 -620 11 -16 58 -61 104 -99 161
-132 248 -317 350 -743 26 -111 49 -201 51 -199 2 1 17 72 34 157 32 158 133
483 187 599 43 94 82 142 166 205 41 31 82 67 90 80 19 29 80 271 101 400 18
107 19 205 4 274 -6 31 -40 98 -88 178 -42 70 -96 162 -119 203 -43 78 -95
140 -87 104 19 -85 82 -528 108 -767 6 -47 -9 -15 -27 58 -10 39 -55 199 -101
356 -102 344 -120 417 -200 809 l-62 305 -16 -55z"/>
<path d="M6212 5914 c3 -5 52 -88 110 -184 58 -96 117 -197 131 -225 49 -99
186 -424 237 -565 29 -80 59 -158 67 -174 8 -15 63 -83 122 -150 171 -194 308
-372 297 -384 -3 -2 -58 41 -125 96 -102 85 -287 210 -296 200 -2 -2 1 -37 5
-78 14 -114 11 -281 -5 -420 -26 -216 -25 -217 61 -418 223 -518 283 -902 224
-1430 -12 -107 -20 -196 -18 -198 17 -17 286 396 373 571 148 300 221 595 232
936 9 266 -17 527 -71 734 -29 108 -193 524 -243 615 -180 330 -552 725 -902
959 -100 67 -206 128 -199 115z m718 -1909 c76 -157 136 -362 170 -580 11 -66
31 -475 24 -484 -8 -10 -25 58 -39 157 -28 189 -83 442 -140 642 -50 173 -96
362 -95 394 1 21 33 -30 80 -129z"/>
<path d="M1563 5860 c-175 -95 -340 -225 -538 -424 -213 -214 -355 -407 -464
-631 -141 -290 -211 -445 -234 -520 -48 -154 -69 -311 -74 -561 -8 -318 14
-511 82 -750 59 -204 236 -597 367 -814 63 -105 157 -235 164 -227 2 2 -8 71
-22 153 -18 107 -27 203 -31 339 -14 472 58 812 264 1245 73 152 71 140 34
335 -27 144 -26 252 4 395 13 63 22 117 20 118 -9 10 -185 -84 -281 -150 -144
-99 -143 -98 -120 -63 31 49 74 102 179 219 132 148 164 200 227 357 164 412
301 700 429 907 38 61 69 112 68 112 -1 0 -35 -18 -74 -40z m-538 -1667 c-2
-16 -9 -66 -16 -113 -7 -47 -41 -191 -75 -320 -59 -215 -164 -664 -180 -768
-9 -59 -24 -63 -24 -5 0 90 21 338 36 438 21 135 67 323 110 448 51 147 137
347 149 347 2 0 3 -12 0 -27z"/>
<path d="M4997 5490 c-3 -8 -19 -62 -37 -120 -33 -107 -60 -172 -168 -405 -33
-71 -79 -184 -102 -250 -47 -132 -45 -115 -37 -430 2 -82 7 -158 11 -168 7
-14 166 -136 223 -170 11 -7 2 21 -46 146 -11 28 0 77 17 77 16 0 114 -263
132 -355 10 -49 31 -177 46 -282 16 -106 31 -193 35 -193 20 0 301 724 356
915 25 90 28 115 27 240 -1 122 -4 152 -28 230 -15 49 -41 116 -59 149 -30 57
-31 58 -40 32 -5 -16 -3 -74 7 -156 18 -143 21 -256 7 -264 -5 -3 -11 13 -15
37 -25 160 -128 499 -232 764 -74 190 -90 224 -97 203z"/>
<path d="M2752 5235 c-104 -264 -153 -418 -189 -585 -16 -72 -31 -130 -35
-130 -10 0 -23 87 -21 145 1 28 11 92 22 142 12 51 21 103 21 115 -1 80 -142
-203 -155 -312 -8 -67 9 -236 36 -349 35 -152 356 -957 374 -939 3 3 12 63 20
134 9 71 22 164 31 206 18 94 153 536 182 598 20 45 20 45 21 13 1 -17 -10
-73 -23 -125 -24 -91 -38 -178 -30 -178 2 0 50 33 105 73 l102 73 -2 99 c-1
54 3 137 10 185 23 162 -22 312 -201 670 -59 118 -122 250 -140 292 -17 43
-35 80 -38 82 -4 2 -45 -92 -90 -209z"/>
<path d="M1841 4828 c-44 -128 -88 -260 -97 -293 -22 -83 -30 -287 -14 -383
14 -90 110 -392 182 -571 56 -141 227 -502 242 -513 6 -4 17 -8 25 -8 12 0 13
31 8 188 -9 326 20 508 114 703 l51 106 -17 49 c-34 102 -47 183 -50 326 -3
87 -9 157 -16 170 -6 12 -48 60 -93 108 -83 87 -146 175 -207 287 -19 35 -37
63 -40 63 -4 0 -43 -105 -88 -232z"/>
<path d="M5887 4969 c-21 -38 -85 -128 -143 -199 -57 -72 -109 -141 -114 -156
-6 -14 -14 -85 -20 -159 -9 -135 -37 -297 -65 -374 -15 -43 -15 -44 30 -155
58 -145 95 -286 103 -394 4 -48 4 -179 0 -292 -3 -113 -5 -206 -4 -208 6 -5
117 209 169 323 81 179 265 653 288 742 40 151 25 361 -38 551 -27 82 -149
372 -161 384 -4 4 -24 -25 -45 -63z"/>
<path d="M366 4699 c-76 -90 -243 -493 -305 -734 -54 -214 -67 -440 -32 -577
25 -99 90 -223 107 -206 3 4 10 120 15 260 5 139 16 309 25 377 19 153 71 368
119 492 69 179 85 233 96 322 6 49 9 91 6 93 -2 3 -17 -10 -31 -27z"/>
<path d="M7497 4723 c-4 -3 -7 -52 -7 -107 0 -81 5 -114 24 -166 13 -36 41
-110 61 -165 91 -249 139 -501 161 -860 8 -137 17 -251 19 -253 9 -9 77 144
96 215 19 67 21 95 16 203 -12 278 -89 543 -277 955 -92 202 -84 187 -93 178z"/>
<path d="M6234 4643 c23 -117 49 -356 61 -551 7 -129 16 -236 19 -239 12 -12
144 295 172 402 20 73 17 172 -5 222 -26 57 -87 113 -170 157 -38 20 -72 36
-76 36 -4 0 -4 -12 -1 -27z"/>
<path d="M1520 4605 c-146 -62 -148 -64 -178 -115 -24 -40 -27 -55 -26 -135 1
-116 35 -263 69 -295 l24 -23 -6 107 c-3 58 -3 106 0 106 3 0 31 -78 61 -172
31 -95 64 -183 75 -195 l18 -22 7 52 c3 29 6 86 6 127 0 142 38 473 66 587 4
13 2 23 -2 23 -5 -1 -56 -21 -114 -45z"/>
<path d="M1594 3082 c-118 -189 -134 -223 -188 -384 -68 -203 -77 -258 -83
-478 l-5 -195 42 -55 c24 -30 59 -72 78 -92 20 -21 33 -40 31 -43 -3 -3 -30
13 -59 35 -30 22 -60 40 -67 40 -43 0 36 -435 115 -633 44 -109 91 -179 191
-282 47 -49 102 -108 121 -129 l35 -39 -41 23 c-23 12 -78 53 -123 91 -78 67
-111 83 -111 55 0 -7 30 -74 66 -147 117 -238 293 -478 515 -701 69 -71 133
-128 142 -128 12 0 -2 37 -58 153 -158 327 -275 771 -319 1217 -7 74 -12 137
-9 139 9 12 74 -68 111 -137 22 -42 48 -86 57 -97 15 -19 15 -14 10 65 -11
147 -22 172 -155 342 -82 105 -128 173 -146 218 -41 102 -94 323 -93 388 1 55
2 52 34 -80 53 -214 118 -337 258 -483 l76 -80 1 79 0 78 -64 107 c-121 201
-181 342 -231 541 -51 200 -67 449 -44 656 6 53 9 97 7 99 -2 2 -44 -63 -94
-143z"/>
<path d="M6194 3195 c16 -79 27 -269 21 -355 -19 -264 -95 -576 -183 -751 -21
-40 -68 -115 -105 -165 l-67 -92 0 -76 c0 -42 4 -76 9 -76 18 0 109 81 152
137 93 118 141 229 174 403 24 127 38 147 31 45 -2 -44 -18 -132 -34 -195 -43
-168 -98 -270 -236 -435 -89 -106 -96 -121 -107 -233 -5 -53 -12 -104 -15
-115 -15 -47 23 -4 73 83 50 88 107 160 116 149 8 -8 -42 -413 -64 -524 -48
-242 -161 -589 -246 -752 -90 -172 -113 -218 -113 -226 0 -35 301 260 412 403
81 105 203 290 257 391 39 73 85 189 75 189 -3 0 -40 -26 -82 -58 -88 -66
-132 -95 -137 -90 -2 2 41 54 95 116 134 154 203 296 269 557 28 110 64 332
57 350 -4 12 -18 8 -71 -21 -36 -20 -65 -32 -65 -28 0 4 27 36 60 70 86 90
100 124 100 259 0 189 -44 426 -111 600 -52 136 -210 419 -256 456 -14 12 -15
10 -9 -16z"/>
<path d="M3923 2837 c-44 -126 -113 -365 -132 -457 -18 -83 -60 -360 -61 -393
0 -7 -6 -3 -13 8 -7 13 -12 72 -12 172 l0 153 -53 -58 c-67 -73 -85 -107 -84
-157 0 -22 25 -164 55 -315 30 -151 70 -362 88 -467 19 -106 37 -193 40 -193
23 0 25 195 4 465 -18 234 -19 287 -4 261 6 -10 17 -100 25 -200 16 -218 21
-255 90 -751 55 -398 70 -485 84 -485 8 0 14 41 71 519 22 185 46 379 54 431
8 52 21 174 31 270 9 96 20 184 24 195 21 54 22 -35 1 -249 -12 -127 -21 -253
-21 -281 0 -63 18 -131 31 -118 5 5 19 70 30 144 12 74 48 268 79 433 57 294
58 299 44 355 -16 59 -83 178 -100 173 -5 -1 -10 -57 -11 -125 -1 -130 -13
-215 -28 -207 -5 3 -10 41 -11 85 -2 127 -41 321 -115 584 -39 134 -73 250
-77 257 -5 8 -16 -10 -29 -49z"/>
<path d="M2321 2354 c-62 -168 -81 -265 -95 -469 -8 -130 -14 -180 -20 -158
-6 26 -36 68 -36 50 0 -3 -5 -39 -10 -80 -23 -161 31 -319 160 -467 l30 -35
-6 30 c-4 17 -18 54 -31 84 -32 74 -76 331 -55 317 6 -3 34 -66 62 -139 93
-239 242 -498 343 -595 l44 -43 -28 128 c-40 180 -52 295 -47 430 4 100 9 128
32 183 44 102 44 105 -2 154 -146 158 -238 351 -290 610 l-19 90 -32 -90z"/>
<path d="M5530 2380 c0 -57 -31 -185 -61 -249 -61 -132 -124 -226 -217 -322
l-93 -97 41 -103 c66 -164 73 -304 30 -529 -10 -52 -25 -116 -33 -142 -14 -45
-14 -47 3 -38 31 17 122 123 178 208 66 101 156 282 208 417 21 55 42 105 47
110 6 6 7 -23 5 -75 -4 -67 -13 -105 -41 -179 -21 -51 -37 -109 -37 -130 l1
-36 29 35 c41 48 105 173 125 244 13 46 16 84 13 163 -3 57 -10 109 -16 115
-7 7 -19 -5 -42 -46 -18 -31 -33 -56 -33 -56 -1 0 -2 84 -3 188 -1 129 -6 213
-17 272 -17 86 -74 280 -82 280 -3 0 -5 -14 -5 -30z"/>
<path d="M6637 2355 c4 -16 7 -154 8 -305 0 -339 -9 -408 -94 -734 -17 -66
-30 -124 -28 -130 6 -18 64 91 107 201 80 202 120 465 100 645 -11 94 -56 270
-81 318 -19 34 -19 34 -12 5z"/>
<path d="M1227 2345 c-16 -15 -48 -139 -68 -260 -17 -104 -14 -324 5 -435 21
-121 74 -279 133 -398 25 -51 47 -91 49 -90 1 2 -15 84 -36 183 -68 312 -75
372 -74 645 0 135 5 273 11 308 10 63 6 73 -20 47z"/>
<path d="M3125 2265 c-55 -97 -93 -195 -121 -302 -27 -109 -49 -338 -41 -435
3 -38 2 -68 -2 -68 -14 0 -32 111 -38 238 -3 67 -9 122 -13 122 -11 0 -36 -55
-55 -124 -25 -87 -18 -184 22 -266 38 -81 178 -255 267 -334 37 -32 65 -60 62
-63 -3 -3 -33 16 -67 43 l-62 48 5 -87 c3 -48 2 -87 -2 -87 -12 0 -20 28 -30
102 -11 89 -43 140 -163 254 -106 102 -116 99 -73 -28 63 -188 179 -419 308
-611 72 -107 248 -340 254 -334 2 2 -5 57 -17 123 -35 210 -36 375 -3 670 16
141 34 264 40 272 9 13 14 10 30 -16 10 -18 21 -32 24 -32 3 0 15 57 26 126
l21 125 -44 26 c-81 47 -194 223 -232 361 -11 40 -27 132 -37 205 -9 73 -18
133 -19 135 -2 2 -20 -26 -40 -63z"/>
<path d="M4690 2256 c0 -217 -92 -489 -198 -588 -26 -24 -58 -50 -71 -59 l-24
-15 23 -140 c13 -76 25 -141 27 -144 2 -2 16 11 30 29 20 25 28 30 34 19 4 -7
15 -88 24 -178 22 -213 16 -570 -13 -730 -11 -58 -18 -106 -17 -108 12 -15
365 519 435 658 56 112 135 301 145 348 6 31 5 33 -12 23 -38 -20 -192 -180
-213 -220 -11 -23 -30 -80 -41 -128 -20 -84 -46 -150 -55 -140 -4 3 22 144 41
226 5 20 -3 16 -55 -29 -33 -29 -63 -50 -66 -48 -2 3 40 52 93 110 128 138
210 246 234 308 35 93 23 209 -37 334 l-19 39 -5 -166 c-6 -204 -24 -244 -33
-75 -8 143 -29 266 -68 393 -32 104 -136 335 -150 335 -5 0 -9 -24 -9 -54z"/>
<path d="M3473 1133 c-27 -65 -13 -137 51 -269 31 -63 61 -114 66 -114 6 0 10
15 10 33 -1 72 -84 387 -102 387 -5 0 -16 -17 -25 -37z"/>
<path d="M4379 1119 c-11 -11 -27 -35 -34 -53 -14 -33 -49 -245 -42 -253 8 -8
68 72 94 125 33 68 46 202 19 202 -9 0 -25 -9 -37 -21z"/>
</g>
</svg>
